<?xml version="1.0" standalone="no"?>
<!DOCTYPE svg PUBLIC "-//W3C//DTD SVG 20010904//EN"
 "http://www.w3.org/TR/2001/REC-SVG-20010904/DTD/svg10.dtd">
<svg version="1.0" xmlns="http://www.w3.org/2000/svg"
 width="100.000000pt" height="100.000000pt" viewBox="0 0 100.000000 100.000000"
 preserveAspectRatio="xMidYMid meet">
<metadata>
Created by potrace 1.11, written by Peter Selinger 2001-2013
</metadata>
<g transform="translate(0.000000,100.000000) scale(0.100000,-0.100000)"
fill="#000000" stroke="none">
<path d="M110 938 c-17 -6 -19 -19 -19 -140 1 -73 7 -173 15 -223 16 -98 16
-95 13 -143 -2 -24 -6 -31 -17 -27 -10 4 -12 0 -8 -11 3 -8 6 -19 6 -24 0 -5
7 -16 16 -24 8 -9 10 -16 4 -16 -6 0 -5 -11 5 -30 9 -17 13 -35 10 -39 -7 -12
22 -41 41 -41 8 0 14 -8 14 -18 0 -47 135 -144 170 -122 8 5 21 0 33 -11 12
-10 27 -19 35 -19 8 0 12 -6 8 -15 -4 -12 6 -15 64 -15 50 0 70 4 70 13 0 16
57 44 93 46 38 1 77 23 120 68 34 34 38 41 36 59 0 4 14 14 31 22 19 9 30 21
28 31 -2 10 5 29 14 43 13 20 14 28 5 31 -9 3 -8 8 3 21 19 24 23 56 6 56 -14
0 -15 51 -2 130 15 95 19 145 19 255 1 66 -2 128 -6 138 -6 17 -30 18 -397 15
-215 -2 -400 -6 -410 -10z"/>
</g>
</svg>
